<svg xmlns="http://www.w3.org/2000/svg" width="120" height="120" viewBox="0 0 120 120"><path d="M101.1816,45.9937,75.3379,40.5992l-1.419,2.8379,6.5323,3.9765-.57,1.1443L71.3623,48H67.9551l1.9883,5.6692-5.1123,1.2776L54.8916,46H53.1875l6.5313,9.511-3.4063,2.6246L50.916,53.0583l-1.9883-.834,4.792,7.21-3.0586.87L40.5645,52.6787l-1.1875.2767.4121,1.3706L46.7773,60.95,43.626,62.2291,33.6221,55.4674,32.4346,55.24l-.2754,1.37,7.081,6.5313-8.77,1.6914-10.6426-6.58-1.69.5957,2.376,3.2432,3.7,12.88-.4111,3.1972.1826,1.0977,5.2988-11.5127,9.7744-2.2373-2.6484,7.9931-.0449,1.6-.9151,2.9228.9151,1.3691L38.1,76.57l1.6445-.044L44.127,64.191l3.4736-.3194-1.28,7.6729-.1826,3.3809.7773,1.0966,3.8819-12.791,3.1045-1.14.5039.4111-.3194,3.6543,1.0049,1.6885,1.8721-1.78.458-5.1611L63.54,59.3511l.5928.958-1.873,5.252-1.1407,5.1621-.6406,5.665,1.69-.3193,3.792-12.6074L67.65,58.8931l3.792-1.69.1367,2.1924-.6855,4.1123-.1827,5.0244,1.1416,1.0957,3.0137-12.9717,5.2549-2.832.7764,1.1865L81.49,58.939l-1.1865,4.5694L83.7744,65.7,98.5283,49.898l3.335-.5947ZM84.3877,55.4742l-.3291-5.7871,1.5781-5.4658,1.2412.5117ZM89.4688,49l.2587-2.68,1.9414.9524L91.7988,49Z"/></svg>